<svg width="437" height="108" viewBox="0 0 437 108" fill="none" xmlns="http://www.w3.org/2000/svg">
<rect width="437" height="108" fill="white"/>
<rect x="23.5" y="32.5" width="247" height="14" fill="#25E159" stroke="black"/>
<line x1="22" y1="39" x2="271" y2="39" stroke="black" stroke-width="2"/>
<path d="M271.5 20L271.5 58M22.5 20L22.5 58" stroke="black" stroke-width="2"/>
<path d="M27.1548 77.0259C27.1548 79.4592 26.7393 81.2673 25.9082 82.4502C25.0771 83.6332 23.7782 84.2246 22.0112 84.2246C20.2668 84.2246 18.9753 83.6481 18.1367 82.4951C17.2982 81.3347 16.8639 79.6052 16.834 77.3067V74.5327C16.834 72.1294 17.2495 70.3438 18.0806 69.1758C18.9116 68.0078 20.2144 67.4238 21.9888 67.4238C23.7482 67.4238 25.0435 67.9891 25.8745 69.1196C26.7056 70.2427 27.1323 71.9797 27.1548 74.3306V77.0259ZM25.0771 74.1846C25.0771 72.4251 24.8301 71.1449 24.3359 70.3438C23.8418 69.5352 23.0594 69.1309 21.9888 69.1309C20.9256 69.1309 20.1507 69.5314 19.6641 70.3325C19.1774 71.1336 18.9266 72.3652 18.9116 74.0274V77.3516C18.9116 79.1185 19.1662 80.425 19.6753 81.271C20.1919 82.1096 20.9705 82.5288 22.0112 82.5288C23.0369 82.5288 23.7969 82.132 24.291 81.3384C24.7926 80.5448 25.0547 79.2944 25.0771 77.5874V74.1846Z" fill="black"/>
<path d="M258.549 74H257.072V65.4688H258.549V74ZM261.555 67.6602L261.596 68.3926C262.064 67.8262 262.68 67.543 263.441 67.543C264.762 67.543 265.434 68.2988 265.457 69.8106V74H264.033V69.8926C264.033 69.4902 263.945 69.1934 263.77 69.002C263.598 68.8067 263.314 68.709 262.92 68.709C262.346 68.709 261.918 68.9688 261.637 69.4883V74H260.213V67.6602H261.555ZM268.428 74H267.004V67.6602H268.428V74ZM266.916 66.0137C266.916 65.7949 266.984 65.6133 267.121 65.4688C267.262 65.3242 267.461 65.252 267.719 65.252C267.977 65.252 268.176 65.3242 268.316 65.4688C268.457 65.6133 268.527 65.7949 268.527 66.0137C268.527 66.2285 268.457 66.4082 268.316 66.5527C268.176 66.6934 267.977 66.7637 267.719 66.7637C267.461 66.7637 267.262 66.6934 267.121 66.5527C266.984 66.4082 266.916 66.2285 266.916 66.0137ZM271.768 66.1192V67.6602H272.887V68.7149H271.768V72.2539C271.768 72.4961 271.814 72.6719 271.908 72.7813C272.006 72.8867 272.178 72.9395 272.424 72.9395C272.588 72.9395 272.754 72.9199 272.922 72.8809V73.9824C272.598 74.0723 272.285 74.1172 271.984 74.1172C270.891 74.1172 270.344 73.5137 270.344 72.3067V68.7149H269.301V67.6602H270.344V66.1192H271.768ZM275.494 74H274.07V67.6602H275.494V74ZM273.982 66.0137C273.982 65.7949 274.051 65.6133 274.188 65.4688C274.328 65.3242 274.527 65.252 274.785 65.252C275.043 65.252 275.242 65.3242 275.383 65.4688C275.523 65.6133 275.594 65.7949 275.594 66.0137C275.594 66.2285 275.523 66.4082 275.383 66.5527C275.242 66.6934 275.043 66.7637 274.785 66.7637C274.527 66.7637 274.328 66.6934 274.188 66.5527C274.051 66.4082 273.982 66.2285 273.982 66.0137ZM280.838 74C280.775 73.8789 280.721 73.6817 280.674 73.4082C280.221 73.8809 279.666 74.1172 279.01 74.1172C278.373 74.1172 277.854 73.9356 277.451 73.5723C277.049 73.209 276.848 72.7598 276.848 72.2246C276.848 71.5488 277.098 71.0313 277.598 70.6719C278.102 70.3086 278.82 70.127 279.754 70.127H280.627V69.711C280.627 69.3828 280.535 69.1211 280.352 68.9258C280.168 68.7266 279.889 68.627 279.514 68.627C279.189 68.627 278.924 68.709 278.717 68.8731C278.51 69.0332 278.406 69.2383 278.406 69.4883H276.982C276.982 69.1406 277.098 68.8164 277.328 68.5156C277.559 68.211 277.871 67.9727 278.266 67.8008C278.664 67.6289 279.107 67.543 279.596 67.543C280.338 67.543 280.93 67.7305 281.371 68.1055C281.812 68.4766 282.039 69 282.051 69.6758V72.5352C282.051 73.1055 282.131 73.5606 282.291 73.9004V74H280.838ZM279.273 72.9746C279.555 72.9746 279.818 72.9063 280.064 72.7695C280.314 72.6328 280.502 72.4492 280.627 72.2188V71.0235H279.859C279.332 71.0235 278.936 71.1152 278.67 71.2988C278.404 71.4824 278.271 71.7422 278.271 72.0781C278.271 72.3516 278.361 72.5703 278.541 72.7344C278.725 72.8945 278.969 72.9746 279.273 72.9746ZM285.057 74H283.633V65H285.057V74ZM257.066 88V79.4688H259.586C260.34 79.4688 261.008 79.6367 261.59 79.9727C262.176 80.3086 262.629 80.7852 262.949 81.4024C263.27 82.0195 263.43 82.7266 263.43 83.5235V83.9512C263.43 84.7598 263.268 85.4707 262.943 86.084C262.623 86.6973 262.164 87.1699 261.566 87.502C260.973 87.834 260.291 88 259.521 88H257.066ZM258.549 80.6641V86.8164H259.516C260.293 86.8164 260.889 86.5742 261.303 86.0899C261.721 85.6016 261.934 84.9024 261.941 83.9922V83.5176C261.941 82.5918 261.74 81.8848 261.338 81.3965C260.936 80.9082 260.352 80.6641 259.586 80.6641H258.549ZM267.561 88.1172C266.658 88.1172 265.926 87.834 265.363 87.2676C264.805 86.6973 264.525 85.9395 264.525 84.9942V84.8184C264.525 84.1856 264.646 83.6211 264.889 83.125C265.135 82.625 265.479 82.2363 265.92 81.959C266.361 81.6817 266.854 81.543 267.396 81.543C268.26 81.543 268.926 81.8184 269.395 82.3692C269.867 82.9199 270.104 83.6992 270.104 84.707V85.2813H265.961C266.004 85.8047 266.178 86.2188 266.482 86.5235C266.791 86.8281 267.178 86.9805 267.643 86.9805C268.295 86.9805 268.826 86.7168 269.236 86.1895L270.004 86.9219C269.75 87.3008 269.41 87.5957 268.984 87.8067C268.562 88.0137 268.088 88.1172 267.561 88.1172ZM267.391 82.6856C267 82.6856 266.684 82.8223 266.441 83.0957C266.203 83.3692 266.051 83.75 265.984 84.2383H268.697V84.1328C268.666 83.6563 268.539 83.2969 268.316 83.0547C268.094 82.8086 267.785 82.6856 267.391 82.6856ZM272.729 88H271.305V79H272.729V88ZM278.072 88C278.01 87.8789 277.955 87.6817 277.908 87.4082C277.455 87.8809 276.9 88.1172 276.244 88.1172C275.607 88.1172 275.088 87.9356 274.686 87.5723C274.283 87.209 274.082 86.7598 274.082 86.2246C274.082 85.5488 274.332 85.0313 274.832 84.6719C275.336 84.3086 276.055 84.127 276.988 84.127H277.861V83.711C277.861 83.3828 277.77 83.1211 277.586 82.9258C277.402 82.7266 277.123 82.627 276.748 82.627C276.424 82.627 276.158 82.709 275.951 82.8731C275.744 83.0332 275.641 83.2383 275.641 83.4883H274.217C274.217 83.1406 274.332 82.8164 274.562 82.5156C274.793 82.211 275.105 81.9727 275.5 81.8008C275.898 81.6289 276.342 81.543 276.83 81.543C277.572 81.543 278.164 81.7305 278.605 82.1055C279.047 82.4766 279.273 83 279.285 83.6758V86.5352C279.285 87.1055 279.365 87.5606 279.525 87.9004V88H278.072ZM276.508 86.9746C276.789 86.9746 277.053 86.9063 277.299 86.7695C277.549 86.6328 277.736 86.4492 277.861 86.2188V85.0235H277.094C276.566 85.0235 276.17 85.1152 275.904 85.2988C275.639 85.4824 275.506 85.7422 275.506 86.0781C275.506 86.3516 275.596 86.5703 275.775 86.7344C275.959 86.8945 276.203 86.9746 276.508 86.9746ZM282.9 85.961L284.189 81.6602H285.707L283.188 88.961C282.801 90.0274 282.145 90.5606 281.219 90.5606C281.012 90.5606 280.783 90.5254 280.533 90.4551V89.3535L280.803 89.3711C281.162 89.3711 281.432 89.3047 281.611 89.1719C281.795 89.043 281.939 88.8242 282.045 88.5156L282.25 87.9707L280.023 81.6602H281.559L282.9 85.961Z" fill="black"/>
</svg>
